<svg fill="#ffffff" height="64px" width="64px" version="1.1" id="Capa_1" xmlns="http://www.w3.org/2000/svg" xmlns:xlink="http://www.w3.org/1999/xlink" viewBox="0 0 611.998 611.998" xml:space="preserve"><g id="SVGRepo_bgCarrier" stroke-width="0"></g><g id="SVGRepo_tracerCarrier" stroke-linecap="round" stroke-linejoin="round"></g><g id="SVGRepo_iconCarrier"> <g> <path d="M606.476,192.017l-8.294-13.466c-2.055-3.338-6.345-4.511-9.813-2.691L267.702,344.27l168.41-320.667 c1.821-3.47,0.645-7.758-2.691-9.813l-13.464-8.294C414.038,1.849,407.476,0,400.455,0c-16.482,0-31.072,10.352-36.569,14.251 c-14.08,9.991-30.275,25.506-48.139,46.115c-32.805,37.853-67.877,89.346-91.529,134.385 c-11.174,21.277-19.29,40.271-24.454,57.253c-21.452-15.975-47.357-24.615-74.59-24.615c-33.442,0-64.884,13.023-88.533,36.671 c-48.814,48.819-48.814,128.248,0,177.064c23.648,23.645,55.091,36.668,88.533,36.668c3.172,0,6.317-0.154,9.449-0.387 c-2.619,35.115,9.432,71.129,36.225,97.922c23.647,23.648,55.087,36.671,88.531,36.671s64.886-13.023,88.535-36.67 c44.401-44.403,48.402-114.129,12.028-163.114c16.97-5.16,35.957-13.265,57.277-24.463c45.04-23.657,96.534-58.728,134.385-91.53 c20.609-17.863,36.125-34.058,46.115-48.138C613.1,226.414,616.044,207.548,606.476,192.017z M125.175,417.186 c-17.255,0-33.477-6.72-45.674-18.919c-25.186-25.184-25.186-66.164,0-91.351c12.2-12.201,28.421-18.921,45.674-18.921 s33.477,6.72,45.674,18.919c25.184,25.186,25.184,66.168,0,91.352C158.652,410.468,142.431,417.186,125.175,417.186z M305.057,532.474c-12.2,12.201-28.422,18.919-45.676,18.919c-17.254,0-33.473-6.72-45.673-18.919 c-25.186-25.186-25.186-66.164,0-91.351c12.2-12.2,28.421-18.919,45.673-18.919c17.255,0,33.478,6.72,45.676,18.921 C330.245,466.309,330.245,507.288,305.057,532.474z"></path> </g> </g></svg>